<?xml version="1.0" encoding="UTF-8" standalone="no"?>
<svg
   xmlns:dc="http://purl.org/dc/elements/1.1/"
   xmlns:cc="http://creativecommons.org/ns#"
   xmlns:rdf="http://www.w3.org/1999/02/22-rdf-syntax-ns#"
   xmlns:svg="http://www.w3.org/2000/svg"
   xmlns="http://www.w3.org/2000/svg"
   xmlns:sodipodi="http://sodipodi.sourceforge.net/DTD/sodipodi-0.dtd"
   xmlns:inkscape="http://www.inkscape.org/namespaces/inkscape"
   sodipodi:docname="logo.svg"
   inkscape:version="1.0 (6e3e5246a0, 2020-05-07)"
   id="svg8"
   version="1.1"
   viewBox="0 0 37 10.5"
   height="10.5mm"
   width="37mm">
  <defs
     id="defs2">
    <rect
       id="rect835"
       height="81.009384"
       width="330.25375"
       y="69.676003"
       x="-55.830803" />
  </defs>
  <sodipodi:namedview
     inkscape:window-maximized="1"
     inkscape:window-y="24"
     inkscape:window-x="61"
     inkscape:window-height="1056"
     inkscape:window-width="1859"
     units="mm"
     showgrid="false"
     inkscape:document-rotation="0"
     inkscape:current-layer="layer1"
     inkscape:document-units="mm"
     inkscape:cy="283.3211"
     inkscape:cx="155.58001"
     inkscape:zoom="1.63"
     inkscape:pageshadow="2"
     inkscape:pageopacity="0.0"
     borderopacity="1.0"
     bordercolor="#666666"
     pagecolor="#ffffff"
     id="base" />
  <metadata
     id="metadata5">
    <rdf:RDF>
      <cc:Work
         rdf:about="">
        <dc:format>image/svg+xml</dc:format>
        <dc:type
           rdf:resource="http://purl.org/dc/dcmitype/StillImage" />
        <dc:title></dc:title>
      </cc:Work>
    </rdf:RDF>
  </metadata>
  <g
     id="layer1"
     inkscape:groupmode="layer"
     inkscape:label="Layer 1">
    <g
       style="font-style:normal;font-variant:normal;font-weight:900;font-stretch:normal;font-size:10.5833px;line-height:1.25;font-family:Catamaran;-inkscape-font-specification:'Catamaran Heavy';white-space:pre;shape-inside:url(#rect835);fill:#459ba0;fill-opacity:1;stroke:none"
       id="text833"
       transform="translate(55.724245,-71.220943)"
       aria-label="Argzilla">
      <path
         id="path865"
         style="font-style:normal;font-variant:normal;font-weight:900;font-stretch:normal;font-family:Catamaran;-inkscape-font-specification:'Catamaran Heavy';fill:#459ba0;fill-opacity:1"
         d="m -53.025504,71.951191 -2.698741,7.196643 h 1.915577 l 0.497415,-1.418162 h 2.487076 l 0.518581,1.523995 1.894411,-0.190499 -2.688158,-7.111977 z m 1.650995,4.265069 h -1.407579 l 0.687915,-1.95791 z" />
      <path
         id="path867"
         style="font-style:normal;font-variant:normal;font-weight:900;font-stretch:normal;font-family:Catamaran;-inkscape-font-specification:'Catamaran Heavy';fill:#459ba0;fill-opacity:1"
         d="m -45.850688,76.131594 q 0.328082,-0.253999 0.783164,-0.412749 0.455082,-0.158749 0.836081,-0.158749 l -0.391582,-1.545162 q -0.402166,0 -0.878414,0.190499 -0.476249,0.1905 -0.846664,0.444499 l -0.465665,-0.624415 h -0.963081 v 5.122317 h 1.926161 z" />
      <path
         id="path869"
         style="font-style:normal;font-variant:normal;font-weight:900;font-stretch:normal;font-family:Catamaran;-inkscape-font-specification:'Catamaran Heavy';fill:#459ba0;fill-opacity:1"
         d="m -38.595506,74.025517 v 5.29165 q 0,0.656165 -0.359832,1.164163 -0.349249,0.518582 -0.99483,0.804331 -0.634998,0.296332 -1.471079,0.296332 -0.444498,0 -1.174746,-0.158749 -0.730248,-0.148166 -1.174746,-0.433915 l 0.582081,-1.354663 q 0.465665,0.232833 0.857248,0.306916 0.391582,0.08467 0.77258,0.08467 0.455082,0 0.740831,-0.211666 0.296333,-0.201082 0.296333,-0.507998 v -0.179916 q -0.391582,0.137583 -0.761998,0.137583 -1.185329,0 -1.915577,-0.677331 -0.719664,-0.677332 -0.719664,-2.000244 0,-1.344079 0.730247,-2.042577 0.740831,-0.709081 1.989661,-0.709081 0.761997,0 1.386412,0.507998 l 0.253999,-0.317499 z m -2.391825,3.757072 q 0.232832,0 0.465665,-0.15875 v -2.169576 q -0.306916,-0.137583 -0.550332,-0.137583 -0.370415,0 -0.613831,0.338666 -0.243416,0.338665 -0.243416,0.920747 0,0.582081 0.243416,0.89958 0.243416,0.306916 0.698498,0.306916 z" />
      <path
         id="path871"
         style="font-style:normal;font-variant:normal;font-weight:900;font-stretch:normal;font-family:Catamaran;-inkscape-font-specification:'Catamaran Heavy';fill:#459ba0;fill-opacity:1"
         d="m -33.598864,74.014934 h -4.095737 l 0.179916,1.513412 h 1.693328 l -2.106077,2.624658 0.232833,0.99483 h 4.381486 l -0.179916,-1.513411 h -2.08491 l 2.074326,-2.550576 z" />
      <path
         id="path873"
         style="font-style:normal;font-variant:normal;font-weight:900;font-stretch:normal;font-family:Catamaran;-inkscape-font-specification:'Catamaran Heavy';fill:#459ba0;fill-opacity:1"
         d="m -31.755551,73.316436 q 0.433915,0 0.740831,-0.306915 0.317499,-0.306916 0.317499,-0.730248 0,-0.433915 -0.317499,-0.740831 -0.306916,-0.317499 -0.740831,-0.317499 -0.423332,0 -0.730248,0.317499 -0.306916,0.306916 -0.306916,0.740831 0,0.423332 0.306916,0.730248 0.306916,0.306915 0.730248,0.306915 z m 0.973663,5.831398 v -5.1329 h -1.92616 v 5.1329 z" />
      <path
         id="path875"
         style="font-style:normal;font-variant:normal;font-weight:900;font-stretch:normal;font-family:Catamaran;-inkscape-font-specification:'Catamaran Heavy';fill:#459ba0;fill-opacity:1"
         d="m -27.699504,79.147834 v -7.471809 l -1.92616,0.116416 v 7.355393 z" />
      <path
         id="path877"
         style="font-style:normal;font-variant:normal;font-weight:900;font-stretch:normal;font-family:Catamaran;-inkscape-font-specification:'Catamaran Heavy';fill:#459ba0;fill-opacity:1"
         d="m -24.495574,79.147834 v -7.471809 l -1.92616,0.116416 v 7.355393 z" />
      <path
         id="path879"
         style="font-style:normal;font-variant:normal;font-weight:900;font-stretch:normal;font-family:Catamaran;-inkscape-font-specification:'Catamaran Heavy';fill:#459ba0;fill-opacity:1"
         d="m -22.836807,75.708262 q 0.296332,-0.127 0.656164,-0.211666 0.370416,-0.09525 0.624415,-0.09525 0.275166,0 0.444498,0.148167 0.179917,0.148166 0.22225,0.444498 h -0.613832 q -2.010827,0 -2.010827,1.502829 0,0.814914 0.486832,1.291162 0.486832,0.476249 1.439329,0.476249 0.645581,0 1.15358,-0.645582 l 0.550331,0.529165 h 0.931331 v -3.174989 q 0,-0.994831 -0.550332,-1.566329 -0.550332,-0.571498 -1.576912,-0.571498 -0.592664,0 -1.206496,0.148166 -0.613831,0.137583 -1.05833,0.338666 z m 0.93133,1.756828 q 0,-0.179916 0.116416,-0.296333 0.127,-0.116416 0.317499,-0.116416 h 0.592665 v 0.486832 q -0.349249,0.285749 -0.677331,0.285749 -0.148166,0 -0.253999,-0.09525 -0.09525,-0.105833 -0.09525,-0.264582 z" />
    </g>
  </g>
</svg>
